<svg xmlns="http://www.w3.org/2000/svg" viewBox="0 0 100 100"><path fill="#ee3e54" d="M13,27c-1.105,0-2,0.895-2,2s0.895,2,2,2s2-0.895,2-2S14.105,27,13,27z"></path><path fill="#f1bc19" d="M77,12c-0.551,0-1,0.449-1,1s0.449,1,1,1s1-0.449,1-1S77.551,12,77,12z"></path><path fill="#fce0a2" d="M50,13c-20.434,0-37,16.566-37,37s16.566,37,37,37s37-16.566,37-37S70.434,13,50,13z"></path><path fill="#f1bc19" d="M83,11c-2.211,0-4,1.789-4,4s1.789,4,4,4s4-1.789,4-4S85.211,11,83,11z"></path><path fill="#ee3e54" d="M87,22c-1.105,0-2,0.895-2,2s0.895,2,2,2s2-0.895,2-2S88.105,22,87,22z"></path><path fill="#fbcd59" d="M81,74c-1.105,0-2,0.895-2,2s0.895,2,2,2s2-0.895,2-2S82.105,74,81,74z M15,59 c-2.211,0-4,1.789-4,4s1.789,4,4,4s4-1.789,4-4S17.211,59,15,59z"></path><path fill="#ee3e54" d="M25,85c-1.105,0-2,0.895-2,2s0.895,2,2,2s2-0.895,2-2S26.105,85,25,85z"></path><path fill="#fff" d="M21.5,34c-1.379,0-2.5,1.121-2.5,2.5s1.121,2.5,2.5,2.5s2.5-1.121,2.5-2.5S22.879,34,21.5,34z"></path><path fill="#f1bc19" d="M21,66c-0.551,0-1,0.449-1,1s0.449,1,1,1s1-0.449,1-1S21.551,66,21,66z"></path><path fill="#fff" d="M80,33c-0.551,0-1,0.449-1,1s0.449,1,1,1s1-0.449,1-1S80.551,33,80,33z"></path><path fill="#ee3e54" d="M31,46.166c0-0.457,0.11-0.772,0.331-0.946c0.22-0.174,0.599-0.26,1.135-0.26 c0.614,0,1.032,0.082,1.253,0.248s0.331,0.446,0.331,0.84c0,0.535,0.22,0.957,0.662,1.264c0.441,0.308,1.04,0.461,1.797,0.461 c0.883,0,1.525-0.201,1.927-0.603c0.402-0.401,0.603-1.052,0.603-1.95v-0.449c0-1.498-0.867-2.247-2.601-2.247 c-0.599,0-0.898-0.402-0.898-1.206c0-0.804,0.305-1.206,0.915-1.206c0.688,0,1.22-0.153,1.595-0.459 c0.375-0.306,0.564-0.921,0.564-1.845c0-1.379-0.694-2.07-2.08-2.07c-1.403,0-2.104,0.525-2.104,1.575 c0,0.784-0.489,1.176-1.466,1.176c-0.662,0-1.091-0.09-1.288-0.27c-0.197-0.181-0.296-0.529-0.296-1.047 c0-0.458,0.086-0.913,0.26-1.364c0.173-0.451,0.445-0.89,0.816-1.317c0.37-0.428,0.911-0.776,1.62-1.044 c0.709-0.269,1.537-0.404,2.482-0.404c3.341,0,5.012,1.416,5.012,4.247c0,0.942-0.163,1.762-0.49,2.461 c-0.326,0.699-0.784,1.182-1.372,1.448c1.603,0.631,2.405,1.821,2.405,3.571v0.449c0,1.797-0.524,3.121-1.572,3.972 c-1.049,0.851-2.416,1.277-4.102,1.277c-1.781,0-3.133-0.442-4.054-1.324C31.461,48.262,31,47.269,31,46.166z"></path><path fill="#ee3e54" d="M43.932,45.055v-6.596c0-1.876,0.516-3.247,1.548-4.113c1.032-0.867,2.415-1.301,4.149-1.301 c1.749,0,3.085,0.438,4.007,1.312c0.752,0.713,1.197,1.513,1.336,2.398c0.032,0.201,0.047,0.407,0.047,0.616 c0,0.473-0.115,0.804-0.343,0.993c-0.229,0.189-0.595,0.283-1.099,0.283c-1.072,0-1.608-0.386-1.608-1.158 c0-0.536-0.233-0.962-0.697-1.277c-0.465-0.316-1.037-0.473-1.714-0.473c-1.718,0-2.577,0.907-2.577,2.719v2.577 c0.677-0.803,1.726-1.206,3.144-1.206c1.481,0,2.668,0.379,3.558,1.135c0.89,0.757,1.336,2.009,1.336,3.759v0.331 c0,1.876-0.501,3.247-1.501,4.113c-1.001,0.867-2.345,1.301-4.031,1.301c-1.687,0-3.035-0.434-4.043-1.301 C44.437,48.302,43.932,46.931,43.932,45.055z M46.982,45.294c0,1.842,0.835,2.763,2.506,2.763c1.639,0,2.459-0.921,2.459-2.763 v-0.313c0-1.826-0.828-2.739-2.483-2.739c-1.655,0-2.482,0.841-2.482,2.523V45.294z"></path><path fill="#ee3e54" d="M56.912,45.055v-6.596c0-1.876,0.5-3.247,1.501-4.113c1.001-0.867,2.344-1.301,4.031-1.301 c1.686,0,3.034,0.434,4.043,1.301C67.495,35.211,68,36.583,68,38.458v6.596c0,1.876-0.505,3.247-1.513,4.113 c-1.009,0.867-2.356,1.301-4.043,1.301c-1.687,0-3.03-0.434-4.031-1.301C57.412,48.302,56.912,46.931,56.912,45.055z M59.985,45.055c0,1.813,0.82,2.719,2.459,2.719c1.655,0,2.483-0.906,2.483-2.719v-6.596c0-1.812-0.828-2.719-2.483-2.719 c-1.639,0-2.459,0.907-2.459,2.719V45.055z"></path><g><path fill="#472b29" d="M36.438,50.719c-1.839,0-3.261-0.469-4.227-1.394c-0.969-0.927-1.46-1.99-1.46-3.159 c0-0.535,0.144-0.919,0.426-1.142c0.268-0.211,0.689-0.314,1.29-0.314c0.677,0,1.136,0.097,1.403,0.298 c0.286,0.214,0.431,0.564,0.431,1.04c0,0.452,0.182,0.799,0.555,1.059c0.396,0.276,0.952,0.416,1.654,0.416 c0.81,0,1.398-0.178,1.75-0.53c0.352-0.351,0.53-0.948,0.53-1.773v-0.449c0-1.362-0.747-1.997-2.351-1.997 c-0.429,0-1.148-0.189-1.148-1.456s0.73-1.456,1.165-1.456c0.138,0,0.25,0.112,0.25,0.25s-0.112,0.25-0.25,0.25 c-0.199,0-0.665,0-0.665,0.956s0.454,0.956,0.648,0.956c2.356,0,2.851,1.358,2.851,2.497v0.449c0,0.963-0.228,1.679-0.676,2.127 c-0.449,0.449-1.156,0.676-2.104,0.676c-0.806,0-1.459-0.17-1.94-0.506c-0.51-0.356-0.769-0.85-0.769-1.469 c0-0.314-0.076-0.523-0.231-0.64c-0.121-0.09-0.409-0.198-1.103-0.198c-0.594,0-0.861,0.112-0.98,0.206 c-0.157,0.123-0.236,0.375-0.236,0.749c0,1.027,0.439,1.969,1.306,2.798c0.87,0.833,2.176,1.255,3.881,1.255 c1.245,0,2.321-0.242,3.198-0.721c0.121-0.066,0.273-0.022,0.339,0.1c0.066,0.121,0.021,0.273-0.1,0.339 C38.924,50.456,37.767,50.719,36.438,50.719z M41.311,48.596c-0.048,0-0.096-0.014-0.139-0.042 c-0.115-0.077-0.146-0.232-0.069-0.347c0.504-0.755,0.759-1.76,0.759-2.987v-0.449c0-1.652-0.735-2.744-2.246-3.338 c-0.094-0.037-0.156-0.126-0.159-0.226c-0.002-0.1,0.055-0.193,0.147-0.234c0.529-0.24,0.949-0.686,1.248-1.326 c0.309-0.662,0.466-1.454,0.466-2.355c0-2.034-0.878-3.262-2.684-3.754c-0.133-0.036-0.211-0.174-0.175-0.307 c0.036-0.133,0.174-0.212,0.307-0.175c2.025,0.552,3.052,1.978,3.052,4.237c0,0.974-0.172,1.838-0.513,2.567 c-0.265,0.568-0.617,1.008-1.049,1.315c1.398,0.71,2.106,1.918,2.106,3.599v0.449c0,1.327-0.284,2.425-0.843,3.264 C41.47,48.557,41.391,48.596,41.311,48.596z M38.049,39.905c-0.072,0-0.145-0.031-0.194-0.092 c-0.087-0.107-0.071-0.265,0.036-0.352c0.189-0.154,0.324-0.424,0.399-0.803c0.048-0.24,0.072-0.526,0.072-0.849 c0-1.242-0.582-1.82-1.831-1.82c-1.662,0-1.854,0.756-1.854,1.325c0,0.651-0.298,1.426-1.716,1.426 c-0.743,0-1.206-0.107-1.457-0.335c-0.254-0.233-0.377-0.636-0.377-1.232c0-0.487,0.093-0.977,0.276-1.454 c0.183-0.475,0.472-0.943,0.86-1.391c0.09-0.104,0.248-0.115,0.353-0.025c0.104,0.09,0.116,0.248,0.025,0.353 c-0.35,0.404-0.61,0.822-0.771,1.243c-0.161,0.42-0.243,0.848-0.243,1.274c0,0.55,0.117,0.773,0.214,0.863 c0.083,0.076,0.341,0.204,1.12,0.204c1.078,0,1.216-0.495,1.216-0.926c0-0.833,0.409-1.825,2.354-1.825 c1.525,0,2.331,0.802,2.331,2.32c0,0.355-0.027,0.674-0.082,0.947c-0.099,0.496-0.292,0.863-0.574,1.093 C38.161,39.886,38.105,39.905,38.049,39.905z M34.074,33.698c-0.101,0-0.196-0.061-0.234-0.161 c-0.049-0.129,0.016-0.273,0.145-0.322c0.735-0.279,1.6-0.42,2.571-0.42c0.138,0,0.25,0.112,0.25,0.25s-0.112,0.25-0.25,0.25 c-0.91,0-1.716,0.131-2.394,0.388C34.133,33.693,34.103,33.698,34.074,33.698z"></path><path fill="#472b29" d="M49.488,50.719c-1.741,0-3.156-0.458-4.206-1.361c-1.062-0.912-1.6-2.359-1.6-4.303v-6.596 c0-1.622,0.384-2.903,1.141-3.808c0.151-0.18,0.318-0.348,0.497-0.497c0.105-0.089,0.264-0.075,0.352,0.031 c0.089,0.106,0.075,0.263-0.031,0.352c-0.156,0.131-0.302,0.277-0.435,0.435c-0.679,0.812-1.024,1.985-1.024,3.487v6.596 c0,1.791,0.479,3.111,1.426,3.924c0.957,0.823,2.262,1.241,3.88,1.241c0.138,0,0.25,0.112,0.25,0.25S49.626,50.719,49.488,50.719z M51.882,50.353c-0.104,0-0.2-0.065-0.236-0.168c-0.045-0.13,0.024-0.273,0.154-0.318c0.588-0.204,1.111-0.503,1.556-0.888 c0.425-0.368,0.758-0.842,0.99-1.41c0.282-0.688,0.424-1.534,0.424-2.515v-0.331c0-1.664-0.419-2.865-1.248-3.568 c-0.841-0.714-1.983-1.076-3.396-1.076c-1.335,0-2.328,0.376-2.953,1.117c-0.067,0.08-0.177,0.11-0.277,0.074 c-0.099-0.036-0.164-0.13-0.164-0.235v-1.702c0-0.138,0.112-0.25,0.25-0.25s0.25,0.112,0.25,0.25v1.109 c0.709-0.573,1.68-0.862,2.894-0.862c1.535,0,2.787,0.402,3.72,1.195c0.945,0.803,1.424,2.132,1.424,3.949v0.331 c0,1.046-0.155,1.956-0.461,2.704c-0.263,0.641-0.641,1.178-1.126,1.598c-0.493,0.427-1.071,0.757-1.719,0.982 C51.937,50.349,51.909,50.353,51.882,50.353z M49.488,48.307c-1.803,0-2.756-1.042-2.756-3.014v-0.529 c0-1.814,0.945-2.773,2.732-2.773c1.788,0,2.733,1.034,2.733,2.989v0.313C52.197,47.784,50.724,48.307,49.488,48.307z M49.464,42.492c-1.523,0-2.232,0.722-2.232,2.273v0.529c0,1.715,0.717,2.514,2.256,2.514c1.507,0,2.209-0.799,2.209-2.514v-0.313 C51.697,43.283,50.988,42.492,49.464,42.492z M53.578,38.897c-1.535,0-1.857-0.766-1.857-1.408c0-0.452-0.192-0.802-0.587-1.07 c-0.421-0.285-0.95-0.43-1.574-0.43c-1.099,0-1.79,0.384-2.112,1.174c-0.052,0.128-0.2,0.189-0.326,0.137 c-0.128-0.052-0.189-0.198-0.137-0.326c0.402-0.986,1.268-1.485,2.575-1.485c0.726,0,1.35,0.174,1.855,0.516 c0.535,0.363,0.807,0.862,0.807,1.483c0,0.39,0.141,0.908,1.357,0.908c0.442,0,0.759-0.076,0.94-0.226 c0.167-0.139,0.252-0.408,0.252-0.801c0-1.072-0.427-1.999-1.306-2.833c-0.87-0.825-2.16-1.243-3.835-1.243 c-1.047,0-1.971,0.165-2.747,0.49c-0.127,0.053-0.273-0.007-0.327-0.134c-0.054-0.127,0.006-0.274,0.134-0.327 c0.837-0.351,1.827-0.529,2.94-0.529c1.807,0,3.213,0.465,4.179,1.381c0.97,0.921,1.461,1.996,1.461,3.196 c0,0.549-0.146,0.948-0.433,1.186C54.56,38.786,54.148,38.897,53.578,38.897z"></path><path fill="#472b29" d="M62.444,50.719c-1.74,0-3.151-0.458-4.194-1.362c-1.053-0.912-1.587-2.359-1.587-4.302v-5.472 c0-0.138,0.112-0.25,0.25-0.25s0.25,0.112,0.25,0.25v5.472c0,1.792,0.476,3.112,1.415,3.924c0.95,0.823,2.251,1.24,3.867,1.24 c1.617,0,2.922-0.417,3.88-1.241c0.946-0.813,1.426-2.133,1.426-3.924V42c0-0.138,0.112-0.25,0.25-0.25s0.25,0.112,0.25,0.25 v3.055c0,1.943-0.539,3.391-1.6,4.303C65.599,50.261,64.184,50.719,62.444,50.719z M62.444,48.024 c-1.772,0-2.708-1.027-2.708-2.969v-6.596c0-1.942,0.937-2.969,2.708-2.969c1.788,0,2.733,1.027,2.733,2.969v4.083 c0,0.138-0.112,0.25-0.25,0.25s-0.25-0.112-0.25-0.25v-4.083c0-1.684-0.709-2.469-2.233-2.469c-1.507,0-2.208,0.784-2.208,2.469 v6.596c0,1.684,0.702,2.469,2.208,2.469c1.523,0,2.233-0.784,2.233-2.469c0-0.138,0.112-0.25,0.25-0.25s0.25,0.112,0.25,0.25 C65.177,46.997,64.232,48.024,62.444,48.024z M68,39.875c-0.138,0-0.25-0.112-0.25-0.25v-1.167c0-1.79-0.48-3.111-1.426-3.924 c-0.958-0.823-2.263-1.241-3.88-1.241c-1.616,0-2.917,0.417-3.867,1.24c-0.758,0.656-1.217,1.645-1.362,2.939 c-0.016,0.138-0.146,0.236-0.276,0.22c-0.137-0.015-0.236-0.139-0.221-0.276c0.161-1.423,0.676-2.52,1.532-3.261 c1.043-0.904,2.454-1.362,4.194-1.362s3.155,0.458,4.206,1.361c1.062,0.912,1.6,2.36,1.6,4.303v1.167 C68.25,39.763,68.138,39.875,68,39.875z"></path></g><g><path fill="#472b29" d="M48.067,70.146c-0.009,0-0.018,0-0.026,0c-0.069-0.003-0.359-0.005-0.659-0.008 c-0.348-0.003-0.708-0.007-0.787-0.01C30.464,69.438,18.3,63.901,18.3,57.25c0-3.579,3.382-6.887,9.522-9.313 c0.359-0.142,0.767,0.034,0.908,0.394c0.142,0.36-0.034,0.766-0.394,0.908c-5.489,2.169-8.637,5.089-8.637,8.011 c0,5.79,11.84,10.832,26.955,11.479c0.075,0.003,0.413,0.006,0.74,0.009c0.318,0.003,0.625,0.006,0.698,0.009 c0.387,0.014,0.688,0.339,0.674,0.726C48.752,69.849,48.442,70.146,48.067,70.146z"></path></g><g><path fill="#472b29" d="M53.621,70.117c-0.372,0-0.682-0.293-0.699-0.668c-0.018-0.386,0.281-0.714,0.667-0.731 C68.567,68.029,80.3,62.992,80.3,57.25c0-3.097-3.468-6.138-9.516-8.345c-0.363-0.133-0.55-0.534-0.418-0.898 c0.132-0.363,0.535-0.55,0.897-0.418c6.73,2.455,10.437,5.886,10.437,9.66c0,6.708-11.795,12.119-28.047,12.867 C53.642,70.117,53.631,70.117,53.621,70.117z"></path></g><g><path fill="#472b29" d="M44.036,75.736c-0.179,0-0.358-0.068-0.495-0.205c-0.273-0.273-0.273-0.717,0-0.99l5.041-5.041 l-5.041-5.041c-0.273-0.273-0.273-0.717,0-0.99s0.717-0.273,0.99,0l5.536,5.535c0.131,0.131,0.205,0.309,0.205,0.495 s-0.074,0.364-0.205,0.495l-5.536,5.535C44.394,75.667,44.215,75.736,44.036,75.736z"></path></g><g><path fill="#ee3e54" d="M73.5,30c-1.933,0-3.5,1.567-3.5,3.5s1.567,3.5,3.5,3.5s3.5-1.567,3.5-3.5S75.433,30,73.5,30z M73.5,35c-0.828,0-1.5-0.671-1.5-1.5s0.672-1.5,1.5-1.5s1.5,0.671,1.5,1.5S74.328,35,73.5,35z"></path></g><g><path fill="#472b29" d="M73.5,37.25c-0.807,0-1.576-0.252-2.224-0.73c-0.111-0.082-0.135-0.238-0.053-0.35 c0.083-0.111,0.238-0.134,0.35-0.053c0.561,0.414,1.227,0.632,1.927,0.632c1.149,0,2.189-0.588,2.784-1.572 c0.072-0.119,0.227-0.156,0.343-0.085c0.118,0.071,0.156,0.225,0.084,0.343C76.026,36.572,74.825,37.25,73.5,37.25z M70.344,35.266 c-0.093,0-0.182-0.052-0.225-0.142c-0.245-0.509-0.369-1.055-0.369-1.624c0-0.665,0.176-1.318,0.51-1.889 c0.07-0.119,0.222-0.159,0.342-0.09c0.119,0.07,0.16,0.223,0.09,0.342c-0.289,0.495-0.441,1.061-0.441,1.637 c0,0.493,0.107,0.967,0.319,1.407c0.06,0.124,0.008,0.274-0.117,0.334C70.417,35.258,70.381,35.266,70.344,35.266z M73.5,35.25 c-0.965,0-1.75-0.785-1.75-1.75s0.785-1.75,1.75-1.75s1.75,0.785,1.75,1.75S74.465,35.25,73.5,35.25z M73.5,32.25 c-0.689,0-1.25,0.561-1.25,1.25s0.561,1.25,1.25,1.25s1.25-0.561,1.25-1.25S74.189,32.25,73.5,32.25z M77,33.75 c-0.138,0-0.25-0.112-0.25-0.25c0-1.792-1.458-3.25-3.25-3.25c-0.58,0-1.15,0.155-1.646,0.447c-0.119,0.07-0.272,0.031-0.342-0.089 c-0.07-0.119-0.03-0.272,0.088-0.342c0.574-0.338,1.231-0.517,1.9-0.517c2.068,0,3.75,1.682,3.75,3.75 C77.25,33.638,77.138,33.75,77,33.75z"></path></g><g><path fill="#472b29" d="M53.883,65.156c-0.133,0-0.243-0.104-0.25-0.238c-0.007-0.138,0.1-0.255,0.237-0.262 c3.065-0.15,5.994-0.476,8.704-0.969c0.133-0.024,0.266,0.065,0.291,0.201c0.024,0.136-0.065,0.266-0.201,0.291 c-2.732,0.497-5.682,0.825-8.77,0.976C53.891,65.156,53.887,65.156,53.883,65.156z"></path></g><g><path fill="#472b29" d="M66.242,63.388c-0.111,0-0.212-0.074-0.242-0.187c-0.035-0.134,0.045-0.27,0.178-0.305 c3.896-1.02,6.775-2.366,8.326-3.893c0.099-0.097,0.257-0.096,0.354,0.003c0.097,0.098,0.096,0.257-0.003,0.354 c-1.613,1.588-4.569,2.978-8.549,4.02C66.284,63.385,66.263,63.388,66.242,63.388z"></path></g><g><path fill="#472b29" d="M76,56.75c-0.138,0-0.25-0.112-0.25-0.25c0-1.714-1.774-3.436-4.997-4.848 c-0.126-0.055-0.184-0.203-0.128-0.329c0.056-0.127,0.204-0.184,0.33-0.129c3.464,1.518,5.295,3.353,5.295,5.306 C76.25,56.638,76.138,56.75,76,56.75z"></path></g><g><path fill="#472b29" d="M30.401,62.336c-0.029,0-0.059-0.005-0.088-0.016c-4.232-1.586-6.563-3.653-6.563-5.82 c0-1.944,1.815-3.771,5.249-5.286c0.127-0.056,0.274,0.001,0.33,0.128c0.056,0.126-0.001,0.274-0.127,0.33 C25.962,53.1,24.25,54.77,24.25,56.5c0,1.943,2.215,3.844,6.239,5.351c0.129,0.048,0.195,0.193,0.146,0.322 C30.597,62.274,30.502,62.336,30.401,62.336z"></path></g><g><path fill="#472b29" d="M39.092,64.468c-0.013,0-0.025-0.001-0.038-0.003c-2.312-0.35-4.455-0.809-6.37-1.364 c-0.132-0.038-0.209-0.177-0.17-0.31c0.038-0.133,0.177-0.209,0.31-0.171c1.894,0.549,4.015,1.003,6.306,1.35 c0.136,0.021,0.23,0.148,0.209,0.285C39.32,64.379,39.214,64.468,39.092,64.468z"></path></g></svg>
