<svg width="61" height="61" viewBox="0 0 61 61" fill="none" xmlns="http://www.w3.org/2000/svg">
<path d="M18.3 22.3667L19.9267 23.5867C20.1532 23.2846 20.2912 22.9254 20.3251 22.5493C20.359 22.1732 20.2875 21.7951 20.1187 21.4573C19.9498 21.1196 19.6902 20.8356 19.369 20.637C19.0478 20.4385 18.6776 20.3334 18.3 20.3334V22.3667ZM12.2 30.5L10.5733 29.28C10.3468 29.5821 10.2088 29.9413 10.1749 30.3174C10.141 30.6935 10.2125 31.0716 10.3813 31.4094C10.5502 31.7471 10.8098 32.0312 11.131 32.2297C11.4522 32.4282 11.8224 32.5333 12.2 32.5333V30.5ZM51.7931 11.6063L53.3465 12.9198L51.7931 11.6063ZM8.13333 24.4H18.3V20.3334H8.13333V24.4ZM16.6733 21.1467L10.5733 29.28L13.8267 31.72L19.9267 23.5867L16.6733 21.1467ZM12.2 32.5333H14.2333V28.4667H12.2V32.5333ZM14.2333 36.6H8.13333V40.6667H14.2333V36.6ZM16.2667 34.5667C16.2667 35.106 16.0524 35.6231 15.6711 36.0045C15.2898 36.3858 14.7726 36.6 14.2333 36.6V40.6667C15.8512 40.6667 17.4027 40.024 18.5467 38.88C19.6907 37.7361 20.3333 36.1845 20.3333 34.5667H16.2667ZM14.2333 32.5333C14.7726 32.5333 15.2898 32.7476 15.6711 33.1289C16.0524 33.5102 16.2667 34.0274 16.2667 34.5667H20.3333C20.3333 32.9489 19.6907 31.3973 18.5467 30.2533C17.4027 29.1094 15.8512 28.4667 14.2333 28.4667V32.5333ZM32.5333 20.3334H30.5V24.4H32.5333V20.3334ZM24.4 26.4333V30.5H28.4667V26.4333H24.4ZM24.4 30.5V34.5667H28.4667V30.5H24.4ZM30.5 28.4667H26.4333V32.5333H30.5V28.4667ZM36.6 34.5667C36.6 32.9489 35.9573 31.3973 34.8134 30.2533C33.6694 29.1094 32.1178 28.4667 30.5 28.4667V32.5333C31.0393 32.5333 31.5565 32.7476 31.9378 33.1289C32.3191 33.5102 32.5333 34.0274 32.5333 34.5667H36.6ZM30.5 40.6667C32.1178 40.6667 33.6694 40.024 34.8134 38.88C35.9573 37.7361 36.6 36.1845 36.6 34.5667H32.5333C32.5333 35.106 32.3191 35.6231 31.9378 36.0045C31.5565 36.3858 31.0393 36.6 30.5 36.6V40.6667ZM30.5 36.6C29.9607 36.6 29.4435 36.3858 29.0622 36.0045C28.6809 35.6231 28.4667 35.106 28.4667 34.5667H24.4C24.4 36.1845 25.0427 37.7361 26.1866 38.88C27.3306 40.024 28.8822 40.6667 30.5 40.6667V36.6ZM30.5 20.3334C28.8822 20.3334 27.3306 20.976 26.1866 22.12C25.0427 23.264 24.4 24.8155 24.4 26.4333H28.4667C28.4667 25.8941 28.6809 25.3769 29.0622 24.9956C29.4435 24.6142 29.9607 24.4 30.5 24.4V20.3334ZM48.8 26.4333V34.5667H52.8667V26.4333H48.8ZM44.7333 34.5667V26.4333H40.6667V34.5667H44.7333ZM46.7667 36.6C46.2274 36.6 45.7102 36.3858 45.3289 36.0045C44.9476 35.6231 44.7333 35.106 44.7333 34.5667H40.6667C40.6667 36.1845 41.3093 37.7361 42.4533 38.88C43.5973 40.024 45.1488 40.6667 46.7667 40.6667V36.6ZM48.8 34.5667C48.8 35.106 48.5858 35.6231 48.2045 36.0045C47.8231 36.3858 47.3059 36.6 46.7667 36.6V40.6667C48.3845 40.6667 49.936 40.024 51.08 38.88C52.224 37.7361 52.8667 36.1845 52.8667 34.5667H48.8ZM46.7667 24.4C47.3059 24.4 47.8231 24.6142 48.2045 24.9956C48.5858 25.3769 48.8 25.8941 48.8 26.4333H52.8667C52.8667 24.8155 52.224 23.264 51.08 22.12C49.936 20.976 48.3845 20.3334 46.7667 20.3334V24.4ZM46.7667 20.3334C45.1488 20.3334 43.5973 20.976 42.4533 22.12C41.3093 23.264 40.6667 24.8155 40.6667 26.4333H44.7333C44.7333 25.8941 44.9476 25.3769 45.3289 24.9956C45.7102 24.6142 46.2274 24.4 46.7667 24.4V20.3334ZM30.5 56.9333C23.4894 56.9333 16.766 54.1484 11.8088 49.1912C6.8516 44.234 4.06667 37.5106 4.06667 30.5H0C0 38.5891 3.21338 46.3469 8.93324 52.0668C14.6531 57.7866 22.4109 61 30.5 61V56.9333ZM56.9333 30.5C56.9333 33.9713 56.2496 37.4086 54.9212 40.6156C53.5928 43.8227 51.6458 46.7366 49.1912 49.1912C46.7366 51.6458 43.8226 53.5928 40.6156 54.9212C37.4086 56.2496 33.9713 56.9333 30.5 56.9333V61C38.5891 61 46.3469 57.7866 52.0668 52.0668C57.7866 46.3469 61 38.5891 61 30.5H56.9333ZM30.5 1.68516e-05C22.4109 1.68516e-05 14.6531 3.2134 8.93324 8.93326C3.21338 14.6531 0 22.4109 0 30.5H4.06667C4.06667 23.4895 6.8516 16.766 11.8088 11.8088C16.766 6.85162 23.4894 4.06668 30.5 4.06668V1.68516e-05ZM54.9 12.2C55.4393 12.2 55.9565 12.4142 56.3378 12.7956C56.7191 13.1769 56.9333 13.6941 56.9333 14.2333H61C61 12.6155 60.3573 11.064 59.2134 9.92C58.0694 8.77603 56.5178 8.13335 54.9 8.13335V12.2ZM54.9 16.2667C54.3607 16.2667 53.8435 16.0525 53.4622 15.6711C53.0809 15.2898 52.8667 14.7726 52.8667 14.2333H48.8C48.8 15.8512 49.4427 17.4027 50.5866 18.5467C51.7306 19.6907 53.2822 20.3334 54.9 20.3334V16.2667ZM52.8667 14.2333C52.8667 13.7331 53.0456 13.2777 53.3465 12.9198L50.2437 10.2927C49.3449 11.3541 48.8 12.7327 48.8 14.2333H52.8667ZM53.3465 12.9198C53.5372 12.6937 53.7751 12.512 54.0435 12.3877C54.3118 12.2633 54.6042 12.1993 54.9 12.2V8.13335C53.0293 8.13335 51.3579 8.97515 50.2437 10.2927L53.3465 12.9198ZM30.5 4.06668C38.3649 4.06668 45.4287 7.49895 50.2721 12.9564L53.314 10.2562C50.4551 7.02775 46.9426 4.44384 43.0095 2.67568C39.0763 0.907515 34.8123 -0.00452113 30.5 1.68516e-05V4.06668ZM54.3063 18.9914C55.9899 22.4724 56.9333 26.3724 56.9333 30.5H61C61 25.742 59.9101 21.2402 57.9663 17.2224L54.3063 18.9954V18.9914ZM56.9333 14.2333C56.9339 14.665 56.7971 15.0857 56.5426 15.4345C56.2882 15.7832 55.9294 16.0419 55.5181 16.1731L56.7544 20.0446C57.9869 19.6513 59.0624 18.8764 59.8255 17.8318C60.5887 16.7872 61 15.527 61 14.2333H56.9333ZM55.5181 16.1731C55.3181 16.236 55.1096 16.2676 54.9 16.2667V20.3334C55.5291 20.3347 56.1546 20.2386 56.7544 20.0487L55.5181 16.1731Z" fill="white"/>
</svg>
