<svg width="61" height="61" viewBox="0 0 61 61" fill="none" xmlns="http://www.w3.org/2000/svg">
<g clip-path="url(#clip0_54_9)">
<path d="M57.1875 45.75C57.1875 46.7611 56.7858 47.7309 56.0708 48.4458C55.3559 49.1608 54.3861 49.5625 53.375 49.5625H7.625C6.61386 49.5625 5.64414 49.1608 4.92916 48.4458C4.21417 47.7309 3.8125 46.7611 3.8125 45.75V22.875C3.8125 21.8639 4.21417 20.8941 4.92916 20.1792C5.64414 19.4642 6.61386 19.0625 7.625 19.0625H12.0932C15.1251 19.0608 18.0322 17.8555 20.1757 15.7113L23.3401 12.5546C24.0531 11.8414 25.0195 11.4397 26.0279 11.4375H34.9644C35.9755 11.4377 36.9451 11.8395 37.6599 12.5546L40.8166 15.7113C41.8789 16.7739 43.1401 17.6168 44.5283 18.1918C45.9164 18.7668 47.4042 19.0627 48.9067 19.0625H53.375C54.3861 19.0625 55.3559 19.4642 56.0708 20.1792C56.7858 20.8941 57.1875 21.8639 57.1875 22.875V45.75ZM7.625 15.25C5.60272 15.25 3.66328 16.0533 2.23331 17.4833C0.803346 18.9133 0 20.8527 0 22.875L0 45.75C0 47.7723 0.803346 49.7117 2.23331 51.1417C3.66328 52.5717 5.60272 53.375 7.625 53.375H53.375C55.3973 53.375 57.3367 52.5717 58.7667 51.1417C60.1967 49.7117 61 47.7723 61 45.75V22.875C61 20.8527 60.1967 18.9133 58.7667 17.4833C57.3367 16.0533 55.3973 15.25 53.375 15.25H48.9067C46.8846 15.2496 44.9455 14.4459 43.5159 13.0159L40.3591 9.85912C38.9295 8.42906 36.9904 7.62543 34.9683 7.625H26.0317C24.0096 7.62543 22.0705 8.42906 20.6409 9.85912L17.4841 13.0159C16.0545 14.4459 14.1154 15.2496 12.0932 15.25H7.625Z" fill="white"/>
<path d="M30.5 41.9375C27.9722 41.9375 25.5478 40.9333 23.7604 39.1459C21.9729 37.3584 20.9688 34.9341 20.9688 32.4062C20.9688 29.8784 21.9729 27.4541 23.7604 25.6666C25.5478 23.8792 27.9722 22.875 30.5 22.875C33.0278 22.875 35.4522 23.8792 37.2396 25.6666C39.0271 27.4541 40.0312 29.8784 40.0312 32.4062C40.0312 34.9341 39.0271 37.3584 37.2396 39.1459C35.4522 40.9333 33.0278 41.9375 30.5 41.9375ZM30.5 45.75C34.039 45.75 37.433 44.3441 39.9355 41.8417C42.4379 39.3393 43.8438 35.9452 43.8438 32.4062C43.8438 28.8673 42.4379 25.4732 39.9355 22.9708C37.433 20.4684 34.039 19.0625 30.5 19.0625C26.961 19.0625 23.567 20.4684 21.0645 22.9708C18.5621 25.4732 17.1562 28.8673 17.1562 32.4062C17.1562 35.9452 18.5621 39.3393 21.0645 41.8417C23.567 44.3441 26.961 45.75 30.5 45.75ZM11.4375 24.7812C11.4375 25.2868 11.2367 25.7717 10.8792 26.1292C10.5217 26.4867 10.0368 26.6875 9.53125 26.6875C9.02568 26.6875 8.54082 26.4867 8.18333 26.1292C7.82584 25.7717 7.625 25.2868 7.625 24.7812C7.625 24.2757 7.82584 23.7908 8.18333 23.4333C8.54082 23.0758 9.02568 22.875 9.53125 22.875C10.0368 22.875 10.5217 23.0758 10.8792 23.4333C11.2367 23.7908 11.4375 24.2757 11.4375 24.7812Z" fill="white"/>
</g>
<defs>
<clipPath id="clip0_54_9">
<rect width="61" height="61" fill="white"/>
</clipPath>
</defs>
</svg>
