<svg width="61" height="67" viewBox="0 0 61 67" fill="none" xmlns="http://www.w3.org/2000/svg">
<path d="M31.5517 65.9531V46.0625C31.5517 45.4846 31.272 43.9688 30.6914 43.9688C30.1109 43.9688 29.4483 44.4378 29.4483 45.0156V65.9531C29.4483 66.531 30.1088 67 30.6914 67C31.2741 67 31.5517 66.531 31.5517 65.9531Z" fill="white"/>
<path d="M31.7431 3.27044V1.04688C31.7431 0.769226 31.6323 0.50295 31.4351 0.306623C31.2378 0.110295 30.9703 0 30.6914 0C30.4125 0 30.145 0.110295 29.9477 0.306623C29.7505 0.50295 29.6397 0.769226 29.6397 1.04688V3.27044C29.6397 3.54809 29.7505 3.81436 29.9477 4.01069C30.145 4.20702 30.4125 4.31731 30.6914 4.31731C30.9703 4.31731 31.2378 4.20702 31.4351 4.01069C31.6323 3.81436 31.7431 3.54809 31.7431 3.27044Z" fill="white"/>
<path d="M8.18241 7.26741L0.679414 13.1257C0.466534 13.3206 0.296327 13.5571 0.179426 13.8205C0.0625256 14.0838 0.00144461 14.3683 0 14.6562C0 15.232 0.248207 15.7911 0.744621 16.2433L8.11721 21.9907C8.76297 22.5832 9.91355 23.0312 10.7949 23.0312H39.8814C41.0867 23.0312 42.069 22.0618 42.069 20.8684V8.44409C42.069 7.25066 41.0867 6.28125 39.8814 6.28125H10.7949C9.91355 6.28125 8.76297 6.72931 8.18241 7.26741ZM39.9655 20.8684C39.9655 20.8998 39.9277 20.9375 39.8814 20.9375H10.7949C10.4373 20.9375 9.80417 20.6925 9.48024 20.3973L2.04245 14.717L9.54335 8.85866C9.80628 8.61997 10.4373 8.375 10.7949 8.375L39.9655 8.44409V20.8684Z" fill="white"/>
<path d="M52.8828 26.1656C52.237 25.5731 51.0864 25.125 50.2051 25.125H21.1186C19.9133 25.125 18.931 26.0944 18.931 27.2878V39.7143C18.931 40.9056 19.9133 41.875 21.1186 41.875H50.2051C51.0864 41.875 52.237 41.4269 52.8197 40.8888L60.3206 35.0305C60.5335 34.8356 60.7037 34.5991 60.8206 34.3358C60.9375 34.0724 60.9986 33.7879 61 33.5C60.9956 33.1981 60.927 32.9006 60.7987 32.627C60.6703 32.3534 60.4851 32.11 60.2554 31.9129L52.8828 26.1656ZM21.0345 27.2188H50.2051C50.5627 27.2188 51.1958 27.4637 51.5198 27.7589L58.9576 33.4393L51.4566 39.2976C51.0948 39.5751 50.6603 39.743 50.2051 39.7812H21.0345V27.2188Z" fill="white"/>
</svg>
