<svg width="61" height="39" viewBox="0 0 61 39" fill="none" xmlns="http://www.w3.org/2000/svg">
<path fill-rule="evenodd" clip-rule="evenodd" d="M0 7.625C0 5.60272 0.803346 3.66328 2.23331 2.23331C3.66328 0.803346 5.60272 5.28078e-08 7.625 5.28078e-08H36.2188C38.0682 -0.000217495 39.8546 0.671735 41.2455 1.89072C42.6363 3.10971 43.5367 4.79265 43.7789 6.62612L55.6358 1.35725C56.2162 1.09865 56.852 0.989205 57.4854 1.03885C58.1188 1.0885 58.7298 1.29566 59.2628 1.64152C59.7958 1.98738 60.2339 2.46095 60.5373 3.01921C60.8407 3.57746 60.9997 4.20269 61 4.83806V33.2869C60.9994 33.9218 60.8404 34.5465 60.5372 35.1043C60.234 35.6621 59.7963 36.1354 59.2638 36.4811C58.7314 36.8269 58.121 37.0342 57.4881 37.0842C56.8552 37.1343 56.2198 37.0255 55.6396 36.7677L43.7789 31.4989C43.5367 33.3324 42.6363 35.0153 41.2455 36.2343C39.8546 37.4533 38.0682 38.1252 36.2188 38.125H7.625C5.60272 38.125 3.66328 37.3217 2.23331 35.8917C0.803346 34.4617 0 32.5223 0 30.5V7.625ZM43.8438 27.3547L57.1875 33.2869V4.83806L43.8438 10.7703V27.3547ZM7.625 3.8125C6.61386 3.8125 5.64414 4.21417 4.92916 4.92916C4.21417 5.64414 3.8125 6.61386 3.8125 7.625V30.5C3.8125 31.5111 4.21417 32.4809 4.92916 33.1958C5.64414 33.9108 6.61386 34.3125 7.625 34.3125H36.2188C37.2299 34.3125 38.1996 33.9108 38.9146 33.1958C39.6296 32.4809 40.0312 31.5111 40.0312 30.5V7.625C40.0312 6.61386 39.6296 5.64414 38.9146 4.92916C38.1996 4.21417 37.2299 3.8125 36.2188 3.8125H7.625Z" fill="white"/>
</svg>
