<?xml version="1.0" encoding="iso-8859-1"?>
<!-- Generator: Adobe Illustrator 19.0.0, SVG Export Plug-In . SVG Version: 6.00 Build 0)  -->
<svg version="1.1" id="Capa_1" xmlns="http://www.w3.org/2000/svg" xmlns:xlink="http://www.w3.org/1999/xlink" x="0px" y="0px"
	 viewBox="0 0 57.039 57.039" style="enable-background:new 0 0 57.039 57.039;" xml:space="preserve">
<rect x="5.865" y="38.239" transform="matrix(0.7846 -0.62 0.62 0.7846 -25.6268 14.7152)" style="fill:#556080;" width="5" height="12"/>
<rect x="1.942" y="43.339" transform="matrix(0.7846 -0.62 0.62 0.7846 -28.3938 12.9506)" style="fill:#8697CB;" width="5" height="8"/>
<path style="fill:#ECF0F1;" d="M5.039,34.011c0,1.616,0.263,3.169,0.736,4.628l0.831-0.657l7.44,9.415l-0.284,0.224
	c1.912,0.883,4.033,1.39,6.277,1.39c8.284,0,15-6.716,15-15H5.039z"/>
<path style="fill:#556080;" d="M57.039,23.011h-8l0,0c0-6.437-2.625-11-10-11h-3v-7h21V23.011z"/>
<g>
	<circle style="fill:#FFFFFF;" cx="9.039" cy="37.011" r="1"/>
	<circle style="fill:#FFFFFF;" cx="13.039" cy="37.011" r="1"/>
	<circle style="fill:#FFFFFF;" cx="17.039" cy="37.011" r="1"/>
	<circle style="fill:#FFFFFF;" cx="21.039" cy="37.011" r="1"/>
	<circle style="fill:#FFFFFF;" cx="25.039" cy="37.011" r="1"/>
	<circle style="fill:#FFFFFF;" cx="29.039" cy="37.011" r="1"/>
	<circle style="fill:#FFFFFF;" cx="33.039" cy="37.011" r="1"/>
	<circle style="fill:#FFFFFF;" cx="31.039" cy="39.011" r="1"/>
	<circle style="fill:#FFFFFF;" cx="27.039" cy="39.011" r="1"/>
	<circle style="fill:#FFFFFF;" cx="23.039" cy="39.011" r="1"/>
	<circle style="fill:#FFFFFF;" cx="25.039" cy="41.011" r="1"/>
	<circle style="fill:#FFFFFF;" cx="29.039" cy="41.011" r="1"/>
	<circle style="fill:#FFFFFF;" cx="19.039" cy="39.011" r="1"/>
	<circle style="fill:#FFFFFF;" cx="15.039" cy="39.011" r="1"/>
	<circle style="fill:#FFFFFF;" cx="17.039" cy="41.011" r="1"/>
	<circle style="fill:#FFFFFF;" cx="11.039" cy="39.011" r="1"/>
	<circle style="fill:#FFFFFF;" cx="13.039" cy="41.011" r="1"/>
	<circle style="fill:#FFFFFF;" cx="15.039" cy="43.011" r="1"/>
	<circle style="fill:#FFFFFF;" cx="19.039" cy="43.011" r="1"/>
	<circle style="fill:#FFFFFF;" cx="23.039" cy="43.011" r="1"/>
	<circle style="fill:#FFFFFF;" cx="27.039" cy="43.011" r="1"/>
	<circle style="fill:#FFFFFF;" cx="21.039" cy="41.011" r="1"/>
	<circle style="fill:#FFFFFF;" cx="25.039" cy="45.011" r="1"/>
	<circle style="fill:#FFFFFF;" cx="21.039" cy="45.011" r="1"/>
	<circle style="fill:#FFFFFF;" cx="23.039" cy="47.011" r="1"/>
	<circle style="fill:#FFFFFF;" cx="17.039" cy="45.011" r="1"/>
	<circle style="fill:#FFFFFF;" cx="19.039" cy="47.011" r="1"/>
</g>
<path style="fill:#556080;" d="M24.039,6.011l2,11l0,0c-3.21-1.284-9.79-1.284-13,0l0,0l3-11H24.039z"/>
<polygon style="fill:#8697CB;" points="24.039,6.011 24.948,11.011 36.039,11.011 36.039,6.011 "/>
<path style="fill:#E6E7E8;" d="M39.038,33.806c-0.11-10.383-8.591-18.795-18.999-18.795c-10.477,0-19,8.523-19,19
	c0,0.552,0.447,1,1,1h36c0.008,0.001,0.016,0,0.02,0c0.553,0,1-0.448,1-1C39.059,33.941,39.052,33.872,39.038,33.806z"/>
<path style="fill:#FFFFFF;" d="M34.039,31.011h-9c-0.553,0-1-0.448-1-1s0.447-1,1-1h9c0.553,0,1,0.448,1,1
	S34.592,31.011,34.039,31.011z"/>
<path style="fill:#FFFFFF;" d="M31.039,27.011h-9c-0.553,0-1-0.448-1-1s0.447-1,1-1h9c0.553,0,1,0.448,1,1
	S31.592,27.011,31.039,27.011z"/>
<g>
</g>
<g>
</g>
<g>
</g>
<g>
</g>
<g>
</g>
<g>
</g>
<g>
</g>
<g>
</g>
<g>
</g>
<g>
</g>
<g>
</g>
<g>
</g>
<g>
</g>
<g>
</g>
<g>
</g>
</svg>
