<svg width="33" height="33" viewBox="0 0 33 33" fill="none" xmlns="http://www.w3.org/2000/svg">
<path d="M16.5 0.515625C7.66941 0.515625 0.515625 7.67044 0.515625 16.5C0.515625 25.3296 7.67044 32.4844 16.5 32.4844C25.3306 32.4844 32.4844 25.3296 32.4844 16.5C32.4844 7.67044 25.3296 0.515625 16.5 0.515625ZM24.3509 11.4665L21.7274 23.8291C21.5335 24.7057 21.0117 24.9181 20.2837 24.5056L16.2876 21.5603L14.3602 23.4166C14.1477 23.629 13.9672 23.8095 13.5548 23.8095L13.8383 19.7422L21.2437 13.0515C21.5665 12.7679 21.1726 12.607 20.7467 12.8906L11.5943 18.6522L7.64981 17.4209C6.79284 17.1507 6.77325 16.5639 7.83028 16.1514L23.2413 10.2083C23.957 9.95053 24.5819 10.3826 24.3499 11.4654L24.3509 11.4665Z" fill="white"/>
</svg>
