<svg width="33" height="33" viewBox="0 0 33 33" fill="none" xmlns="http://www.w3.org/2000/svg">
<path d="M17.2302 0.0278438C19.0297 0 20.8189 0.0165 22.6061 0C22.7143 2.10478 23.4713 4.24875 25.012 5.73684C26.5496 7.26206 28.7245 7.96022 30.8406 8.19637V13.7332C28.8575 13.6682 26.8651 13.2557 25.0656 12.4018C24.2818 12.0471 23.5517 11.5902 22.8371 11.1231C22.8278 15.1408 22.8536 19.1534 22.8113 23.1547C22.704 25.0769 22.0698 26.9899 20.9519 28.5739C19.1534 31.2108 16.0318 32.9299 12.8257 32.9835C10.8591 33.0959 8.89457 32.5597 7.21878 31.5717C4.44163 29.9341 2.48741 26.9363 2.20278 23.7188C2.16693 23.0373 2.16143 22.3547 2.18628 21.6728C2.43378 19.0565 3.728 16.5536 5.73688 14.851C8.01388 12.8679 11.2035 11.9233 14.19 12.4823C14.2179 14.519 14.1364 16.5536 14.1364 18.5903C12.7721 18.149 11.1778 18.2727 9.98563 19.1008C9.11344 19.6754 8.45433 20.5207 8.10978 21.5067C7.82516 22.2038 7.90663 22.9783 7.92313 23.7188C8.25003 25.9751 10.4198 27.8716 12.736 27.6664C14.2715 27.6499 15.7431 26.7589 16.5433 25.4543C16.8022 24.9975 17.092 24.5303 17.1074 23.9931C17.2425 21.5335 17.1889 19.0843 17.2054 16.6248C17.2168 11.0818 17.1889 5.55431 17.2312 0.028875L17.2302 0.0278438Z" fill="white"/>
</svg>
