<svg width="32" height="27" viewBox="0 0 32 27" fill="none" xmlns="http://www.w3.org/2000/svg">
<path d="M31.5091 3.78842C30.361 4.29717 29.1276 4.64092 27.831 4.7963C29.1688 3.99576 30.1698 2.73581 30.647 1.25154C29.39 1.99816 28.0143 2.52369 26.5797 2.80529C25.615 1.77523 24.3372 1.09249 22.9447 0.863072C21.5521 0.63365 20.1228 0.870383 18.8787 1.53652C17.6345 2.20265 16.645 3.26092 16.0639 4.54701C15.4828 5.83311 15.3426 7.27508 15.665 8.64904C13.118 8.52116 10.6264 7.85918 8.35191 6.70604C6.07738 5.5529 4.07074 3.93439 2.4622 1.95554C1.9122 2.90429 1.59596 4.00429 1.59596 5.1758C1.59534 6.23041 1.85505 7.26888 2.35204 8.19905C2.84903 9.12923 3.56793 9.92235 4.44495 10.508C3.42783 10.4757 2.43316 10.2008 1.54371 9.70642V9.78892C1.5436 11.2681 2.05525 12.7017 2.99183 13.8465C3.92841 14.9914 5.23224 15.7769 6.68208 16.0699C5.73853 16.3253 4.74929 16.3629 3.78908 16.1799C4.19814 17.4526 4.99495 18.5656 6.06796 19.3629C7.14097 20.1603 8.43647 20.6022 9.77308 20.6267C7.5041 22.4079 4.70193 23.374 1.81733 23.3698C1.30635 23.3699 0.79581 23.3401 0.28833 23.2804C3.21636 25.163 6.6248 26.1622 10.1058 26.1583C21.8896 26.1583 28.3315 16.3985 28.3315 7.93404C28.3315 7.65904 28.3246 7.38129 28.3122 7.10629C29.5652 6.20013 30.6468 5.07803 31.5063 3.79254L31.5091 3.78842Z" fill="white"/>
</svg>
