<?xml version="1.0" encoding="iso-8859-1"?>
<!-- Generator: Adobe Illustrator 19.0.0, SVG Export Plug-In . SVG Version: 6.00 Build 0)  -->
<svg version="1.1" id="Layer_1" xmlns="http://www.w3.org/2000/svg" xmlns:xlink="http://www.w3.org/1999/xlink" x="0px" y="0px"
	 viewBox="0 0 512 512" style="enable-background:new 0 0 512 512;" xml:space="preserve">
<g>
	<g>
		<path d="M468.32,53.08H43.68C19.595,53.08,0,72.675,0,96.76V415.24c0,24.085,19.595,43.68,43.68,43.68H468.32
			c24.085,0,43.68-19.595,43.68-43.68V96.76C512,72.675,492.405,53.08,468.32,53.08z M495.413,415.24
			c0,14.939-12.154,27.093-27.093,27.093H43.68c-14.939,0-27.093-12.154-27.093-27.093V140.441h478.825V415.24z M495.413,123.853
			H16.587V96.76c0-14.939,12.154-27.093,27.093-27.093H468.32c14.939,0,27.093,12.154,27.093,27.093V123.853z"/>
	</g>
</g>
<g>
	<g>
		<path d="M61.374,88.467h-8.847c-4.58,0-8.294,3.713-8.294,8.294c0,4.58,3.713,8.294,8.294,8.294h8.847
			c4.58,0,8.294-3.713,8.294-8.294C69.667,92.18,65.954,88.467,61.374,88.467z"/>
	</g>
</g>
<g>
	<g>
		<path d="M96.76,88.467h-8.847c-4.58,0-8.294,3.713-8.294,8.294c0,4.58,3.713,8.294,8.294,8.294h8.847
			c4.58,0,8.294-3.713,8.294-8.294C105.054,92.18,101.341,88.467,96.76,88.467z"/>
	</g>
</g>
<g>
	<g>
		<path d="M132.147,88.467H123.3c-4.58,0-8.294,3.713-8.294,8.294c0,4.58,3.713,8.294,8.294,8.294h8.847
			c4.58,0,8.294-3.713,8.294-8.294C140.441,92.18,136.727,88.467,132.147,88.467z"/>
	</g>
</g>
<g>
	<g>
		<path d="M468.32,159.24H43.68c-4.58,0-8.294,3.713-8.294,8.294V362.16c0,4.58,3.713,8.294,8.294,8.294H468.32
			c4.58,0,8.294-3.713,8.294-8.294V167.533C476.613,162.953,472.9,159.24,468.32,159.24z M460.026,353.866H51.974V175.827h408.052
			V353.866z"/>
	</g>
</g>
<g>
	<g>
		<path d="M468.32,398.099h-338.09c-3.47-10.273-13.193-17.693-24.622-17.693s-21.152,7.42-24.622,17.693H43.68
			c-4.58,0-8.294,3.713-8.294,8.294c0,4.58,3.713,8.294,8.294,8.294h37.304c3.47,10.273,13.193,17.693,24.622,17.693
			s21.152-7.42,24.622-17.693h338.09c4.58,0,8.294-3.713,8.294-8.294C476.613,401.813,472.9,398.099,468.32,398.099z
			 M105.607,415.793c-5.183,0-9.4-4.217-9.4-9.4s4.217-9.4,9.4-9.4c5.183,0,9.4,4.216,9.4,9.4S110.79,415.793,105.607,415.793z"/>
	</g>
</g>
<g>
	<g>
		<path d="M307.66,249.801l-69.991-38.178c-5.363-2.926-11.703-2.81-16.957,0.309c-5.254,3.12-8.391,8.629-8.391,14.74v76.354
			c-0.001,6.109,3.135,11.618,8.39,14.737c2.719,1.615,5.728,2.424,8.744,2.424c2.811,0,5.626-0.703,8.214-2.115l69.99-38.177
			c5.51-3.006,8.934-8.771,8.934-15.047C316.593,258.572,313.169,252.805,307.66,249.801z M299.716,265.331l-69.991,38.177
			c-0.111,0.061-0.275,0.15-0.547-0.01c-0.271-0.161-0.271-0.351-0.271-0.475V226.67h0.001c0-0.125,0-0.315,0.271-0.476
			c0.114-0.067,0.208-0.091,0.289-0.091c0.112,0,0.195,0.045,0.259,0.08l69.991,38.178c0.122,0.066,0.288,0.157,0.288,0.484
			S299.839,265.264,299.716,265.331z"/>
	</g>
</g>
<g>
</g>
<g>
</g>
<g>
</g>
<g>
</g>
<g>
</g>
<g>
</g>
<g>
</g>
<g>
</g>
<g>
</g>
<g>
</g>
<g>
</g>
<g>
</g>
<g>
</g>
<g>
</g>
<g>
</g>
</svg>
