<?xml version="1.0" encoding="iso-8859-1"?>
<!-- Generator: Adobe Illustrator 19.0.0, SVG Export Plug-In . SVG Version: 6.00 Build 0)  -->
<svg version="1.1" id="Layer_1" xmlns="http://www.w3.org/2000/svg" xmlns:xlink="http://www.w3.org/1999/xlink" x="0px" y="0px"
	 viewBox="0 0 504.123 504.123" style="enable-background:new 0 0 504.123 504.123;" xml:space="preserve">
<rect x="394.248" y="216.864" style="fill:#68767A;" width="38.581" height="159.382"/>
<polygon style="fill:#566566;" points="495.742,406.43 430.316,376.229 430.316,216.84 495.742,186.64 "/>
<polygon style="fill:#4F5C5E;" points="495.742,406.43 430.316,346.029 430.316,247.04 495.742,186.64 "/>
<rect x="388.387" y="242.857" style="fill:#5C6A6D;" width="38.581" height="107.386"/>
<path style="fill:#0F4970;" d="M409.797,388.116c0,21.307-17.274,38.581-38.565,38.581H38.565C17.258,426.697,0,409.423,0,388.116
	V204.922c0-21.291,17.258-38.558,38.565-38.558h332.658c21.291,0,38.565,17.258,38.565,38.558v183.194H409.797z"/>
<path style="fill:#156B9B;" d="M0,204.922c0-21.291,17.258-38.558,38.565-38.558h332.658c21.291,0,38.565,17.258,38.565,38.558"/>
<path style="fill:#5C6A6D;" d="M504.123,407.257c0,3.474-2.796,6.294-6.294,6.294l0,0c-3.466,0-6.294-2.812-6.294-6.294V185.813
	c0-3.474,2.82-6.294,6.294-6.294l0,0c3.489,0,6.294,2.812,6.294,6.294V407.257z"/>
<circle style="fill:#2AF485;" cx="342.449" cy="296.578" r="15.722"/>
<path style="fill:#1BDB76;" d="M331.327,285.408c6.136-6.136,16.093-6.136,22.237,0c6.128,6.136,6.128,16.108,0,22.229"/>
<g>
	<path style="fill:#156B9B;" d="M73.823,337.9c0,2.08-1.701,3.773-3.781,3.773H33.138c-2.08,0-3.781-1.694-3.781-3.773l0,0
		c0-2.079,1.709-3.773,3.781-3.773h36.903C72.121,334.135,73.823,335.829,73.823,337.9L73.823,337.9z"/>
	<path style="fill:#156B9B;" d="M73.823,355.521c0,2.095-1.701,3.773-3.781,3.773H33.138c-2.08,0-3.781-1.678-3.781-3.773l0,0
		c0-2.08,1.709-3.773,3.781-3.773h36.903C72.121,351.748,73.823,353.441,73.823,355.521L73.823,355.521z"/>
	<path style="fill:#156B9B;" d="M73.823,373.134c0,2.079-1.701,3.781-3.781,3.781H33.138c-2.08,0-3.781-1.709-3.781-3.781l0,0
		c0-2.08,1.709-3.773,3.781-3.773h36.903C72.121,369.369,73.823,371.054,73.823,373.134L73.823,373.134z"/>
	<path style="fill:#156B9B;" d="M73.823,390.747c0,2.079-1.701,3.773-3.781,3.773H33.138c-2.08,0-3.781-1.694-3.781-3.773l0,0
		c0-2.079,1.709-3.781,3.781-3.781h36.903C72.121,386.966,73.823,388.675,73.823,390.747L73.823,390.747z"/>
</g>
<circle style="fill:#68767A;" cx="104.353" cy="154.478" r="77.052"/>
<path style="fill:#5C6A6D;" d="M49.877,100.009c30.09-30.074,78.88-30.074,108.961,0c30.098,30.09,30.098,78.895,0,108.969"/>
<circle style="fill:#68767A;" cx="258.363" cy="154.478" r="77.052"/>
<path style="fill:#5C6A6D;" d="M203.91,100.009c30.082-30.074,78.872-30.074,108.954,0c30.106,30.09,30.106,78.895,0,108.969"/>
<polyline style="fill:#156B9B;" points="39.259,274.381 165.289,274.381 165.289,345.273 304.459,345.273 304.459,368.904 
	388.474,368.904 "/>
<g>
</g>
<g>
</g>
<g>
</g>
<g>
</g>
<g>
</g>
<g>
</g>
<g>
</g>
<g>
</g>
<g>
</g>
<g>
</g>
<g>
</g>
<g>
</g>
<g>
</g>
<g>
</g>
<g>
</g>
</svg>
