<svg width="33" height="33" viewBox="0 0 33 33" fill="none" xmlns="http://www.w3.org/2000/svg">
<g clip-path="url(#clip0_37_167)">
<path d="M21.5646 0H11.4347C2.19055 0 -0.000854492 2.19141 -0.000854492 11.4355V21.5655C-0.000854492 30.8096 2.19055 33.001 11.4347 33.001H21.5646C30.8088 33.001 33.0002 30.8096 33.0002 21.5655V11.4355C33.0002 2.19141 30.7871 0 21.5646 0ZM26.6405 23.5414H24.2449C23.3374 23.5414 23.0579 22.8216 21.4254 21.1674C20.0075 19.7928 19.3794 19.6103 19.0298 19.6103C18.5359 19.6103 18.3956 19.7495 18.3956 20.427V22.5916C18.3956 23.1722 18.2131 23.5208 16.6765 23.5208C14.1355 23.5208 11.3161 21.9842 9.33918 19.1214C6.35783 14.9263 5.54211 11.7841 5.54211 11.1344C5.54211 10.7848 5.68133 10.4579 6.35268 10.4579H8.75343C9.36083 10.4579 9.59183 10.7374 9.82799 11.3871C11.015 14.8139 12.9919 17.8159 13.8076 17.8159C14.1087 17.8159 14.2479 17.6767 14.2479 16.9084V13.3691C14.1561 11.7367 13.2971 11.5964 13.2971 11.0168C13.2971 10.7374 13.5281 10.4579 13.8983 10.4579H17.6737C18.1842 10.4579 18.3719 10.7374 18.3719 11.3386V16.1133C18.3719 16.6289 18.6029 16.8114 18.7421 16.8114C19.0432 16.8114 19.3011 16.6289 19.859 16.07C21.5832 14.1364 22.8186 11.155 22.8186 11.155C22.9795 10.8054 23.259 10.4785 23.8664 10.4785H26.2671C26.987 10.4785 27.1478 10.8488 26.987 11.3644C26.6858 12.7607 23.7478 16.9073 23.7478 16.9073C23.4951 17.326 23.3982 17.5086 23.7478 17.9757C24.0056 18.3253 24.844 19.0503 25.4019 19.7C26.428 20.8653 27.2169 21.8429 27.4273 22.5194C27.6635 23.1908 27.3149 23.5403 26.6374 23.5403L26.6405 23.5414Z" fill="white"/>
</g>
<defs>
<clipPath id="clip0_37_167">
<rect width="33" height="33" fill="white"/>
</clipPath>
</defs>
</svg>
