<svg width="30" height="30" viewBox="0 0 30 30" fill="none" xmlns="http://www.w3.org/2000/svg">
<path fill-rule="evenodd" clip-rule="evenodd" d="M25.1381 4.91892C23.8213 3.59348 22.2546 2.54252 20.5288 1.8269C18.8029 1.11129 16.9522 0.745251 15.0839 0.75C7.24958 0.75 0.871917 7.12608 0.86875 14.9636C0.86875 17.4684 1.52267 19.9131 2.76558 22.0696L0.75 29.4337L8.28508 27.4561C10.3694 28.5907 12.7045 29.1856 15.0776 29.1867H15.0839C22.9167 29.1867 29.2943 22.8106 29.2975 14.9731C29.3029 13.1055 28.9381 11.2554 28.2241 9.52968C27.5102 7.80395 26.4613 6.23684 25.1381 4.91892ZM15.0839 26.7879H15.0792C12.9631 26.7881 10.8859 26.2188 9.06567 25.1397L8.635 24.8832L4.16367 26.0564L5.35592 21.6975L5.07567 21.251C3.89258 19.3675 3.26629 17.1878 3.26908 14.9636C3.27225 8.44975 8.57167 3.15033 15.0887 3.15033C16.6407 3.14688 18.1781 3.4513 19.6117 4.04595C21.0453 4.6406 22.3468 5.51368 23.4407 6.61467C24.5406 7.7104 25.4123 9.01325 26.0056 10.4479C26.5988 11.8826 26.9019 13.4206 26.8972 14.9731C26.894 21.4869 21.5946 26.7879 15.0839 26.7879ZM21.5645 17.9387C21.2082 17.7598 19.4634 16.9016 19.1372 16.7828C18.8127 16.6641 18.5767 16.6055 18.3392 16.9602C18.1017 17.3148 17.4209 18.1144 17.2135 18.3519C17.0061 18.5894 16.7987 18.6179 16.444 18.4406C16.0893 18.2633 14.9446 17.888 13.5877 16.6783C12.5316 15.7363 11.8191 14.5741 11.6117 14.2178C11.4042 13.8616 11.5895 13.67 11.7684 13.4927C11.9283 13.3343 12.1231 13.0778 12.3004 12.8704C12.4777 12.663 12.5363 12.5157 12.6551 12.2782C12.7738 12.0407 12.7152 11.8333 12.625 11.656C12.5363 11.4771 11.8254 9.72908 11.5293 9.01817C11.2427 8.32942 10.9498 8.42125 10.7313 8.41175C10.505 8.40249 10.2786 8.39827 10.0521 8.39908C9.87199 8.40367 9.69478 8.44542 9.53158 8.52171C9.36838 8.598 9.22269 8.70718 9.10367 8.84242C8.7775 9.19867 7.86075 10.0568 7.86075 11.8048C7.86075 13.5528 9.13375 15.2423 9.31108 15.4798C9.48842 15.7173 11.8159 19.3035 15.3784 20.8425C16.2271 21.2083 16.8889 21.4268 17.4035 21.5914C18.2537 21.8622 19.028 21.8226 19.6407 21.7323C20.3232 21.631 21.7418 20.8742 22.0379 20.0445C22.334 19.2148 22.334 18.5039 22.2453 18.3551C22.1567 18.2063 21.9176 18.116 21.5645 17.9387Z" fill="white"/>
</svg>
