<svg width="33" height="33" viewBox="0 0 33 33" fill="none" xmlns="http://www.w3.org/2000/svg">
<g clip-path="url(#clip0_37_161)">
<path d="M32.3125 8.94711C32.1256 8.28055 31.7617 7.67708 31.2592 7.20086C30.7426 6.70999 30.1095 6.35886 29.4195 6.18061C26.8372 5.49998 16.4917 5.49998 16.4917 5.49998C12.1788 5.45091 7.86696 5.66674 3.58049 6.14623C2.8905 6.33765 2.25852 6.69663 1.74074 7.19123C1.23199 7.68073 0.863494 8.28436 0.670994 8.94573C0.208572 11.4369 -0.0161043 13.9663 -5.86547e-06 16.5C-0.0165059 19.0314 0.207619 21.56 0.670994 24.0542C0.859369 24.7129 1.22649 25.3137 1.73662 25.7991C2.24674 26.2845 2.88199 26.6351 3.58049 26.8207C6.19712 27.5 16.4917 27.5 16.4917 27.5C20.8102 27.5491 25.1275 27.3333 29.4195 26.8537C30.1095 26.6755 30.7426 26.3244 31.2592 25.8335C31.768 25.3481 32.1296 24.7445 32.3111 24.0872C32.7856 21.597 33.0163 19.0665 33 16.5316C33.0357 13.9859 32.8053 11.4435 32.3125 8.94573V8.94711ZM13.2027 21.208V11.7934L21.8102 16.5014L13.2027 21.208Z" fill="white"/>
</g>
<defs>
<clipPath id="clip0_37_161">
<rect width="33" height="33" fill="white"/>
</clipPath>
</defs>
</svg>
